<mxfile>
    <diagram id="VLF36Yl6fr-27J8BMjUc" name="Page-1">
        <mxGraphModel dx="638" dy="488" grid="1" gridSize="10" guides="1" tooltips="1" connect="1" arrows="1" fold="1" page="1" pageScale="1" pageWidth="827" pageHeight="1169" math="0" shadow="0">
            <root>
                <mxCell id="0"/>
                <mxCell id="1" parent="0"/>
                <mxCell id="2" value="Alternative" style="shape=umlFrame;whiteSpace=wrap;html=1;swimlaneFillColor=#1C1C1C;" vertex="1" parent="1">
                    <mxGeometry x="46" y="190" width="560" height="110" as="geometry"/>
                </mxCell>
                <mxCell id="3" value="" style="endArrow=block;startArrow=none;endFill=1;startFill=0;html=1;entryX=-0.1;entryY=0.018;entryDx=0;entryDy=0;entryPerimeter=0;" edge="1" parent="1">
                    <mxGeometry width="160" relative="1" as="geometry">
                        <mxPoint x="182" y="120" as="sourcePoint"/>
                        <mxPoint x="355" y="120.9799999999999" as="targetPoint"/>
                    </mxGeometry>
                </mxCell>
                <mxCell id="4" value="S'inscrire" style="text;html=1;align=center;verticalAlign=middle;resizable=0;points=[];autosize=1;" vertex="1" parent="1">
                    <mxGeometry x="246" y="100" width="60" height="20" as="geometry"/>
                </mxCell>
                <mxCell id="5" value="" style="endArrow=block;startArrow=none;endFill=1;startFill=0;html=1;entryX=-0.2;entryY=0.082;entryDx=0;entryDy=0;entryPerimeter=0;" edge="1" parent="1">
                    <mxGeometry width="160" relative="1" as="geometry">
                        <mxPoint x="182" y="160" as="sourcePoint"/>
                        <mxPoint x="355" y="160.01999999999987" as="targetPoint"/>
                    </mxGeometry>
                </mxCell>
                <mxCell id="6" value="Se connecter" style="text;html=1;align=center;verticalAlign=middle;resizable=0;points=[];autosize=1;" vertex="1" parent="1">
                    <mxGeometry x="230" y="140" width="90" height="20" as="geometry"/>
                </mxCell>
                <mxCell id="7" value="" style="endArrow=block;startArrow=none;endFill=1;startFill=0;html=1;" edge="1" parent="1">
                    <mxGeometry width="160" relative="1" as="geometry">
                        <mxPoint x="359" y="180" as="sourcePoint"/>
                        <mxPoint x="545" y="180" as="targetPoint"/>
                    </mxGeometry>
                </mxCell>
                <mxCell id="8" value="Verification" style="text;html=1;align=center;verticalAlign=middle;resizable=0;points=[];autosize=1;" vertex="1" parent="1">
                    <mxGeometry x="421" y="160" width="70" height="20" as="geometry"/>
                </mxCell>
                <mxCell id="9" value="" style="endArrow=none;endFill=0;endSize=12;html=1;exitX=0.002;exitY=0.509;exitDx=0;exitDy=0;exitPerimeter=0;entryX=0.998;entryY=0.509;entryDx=0;entryDy=0;entryPerimeter=0;dashed=1;" edge="1" parent="1" source="2" target="2">
                    <mxGeometry width="160" relative="1" as="geometry">
                        <mxPoint x="87" y="244" as="sourcePoint"/>
                        <mxPoint x="604" y="250" as="targetPoint"/>
                    </mxGeometry>
                </mxCell>
                <mxCell id="10" value="" style="endArrow=none;startArrow=classic;endFill=0;startFill=1;html=1;dashed=1;" edge="1" parent="1">
                    <mxGeometry width="160" relative="1" as="geometry">
                        <mxPoint x="367" y="215" as="sourcePoint"/>
                        <mxPoint x="546" y="215" as="targetPoint"/>
                    </mxGeometry>
                </mxCell>
                <mxCell id="11" value="Existe" style="text;html=1;align=center;verticalAlign=middle;resizable=0;points=[];autosize=1;" vertex="1" parent="1">
                    <mxGeometry x="432" y="195" width="50" height="20" as="geometry"/>
                </mxCell>
                <mxCell id="12" value="" style="endArrow=none;startArrow=classic;endFill=0;startFill=1;html=1;dashed=1;exitX=0.9;exitY=0.205;exitDx=0;exitDy=0;exitPerimeter=0;" edge="1" parent="1">
                    <mxGeometry width="160" relative="1" as="geometry">
                        <mxPoint x="182.99999999999977" y="235.05000000000007" as="sourcePoint"/>
                        <mxPoint x="358" y="235" as="targetPoint"/>
                    </mxGeometry>
                </mxCell>
                <mxCell id="13" value="Connecter" style="text;html=1;align=center;verticalAlign=middle;resizable=0;points=[];autosize=1;" vertex="1" parent="1">
                    <mxGeometry x="235" y="215" width="70" height="20" as="geometry"/>
                </mxCell>
                <mxCell id="14" value="" style="endArrow=none;startArrow=classic;endFill=0;startFill=1;html=1;dashed=1;exitX=1.3;exitY=0.256;exitDx=0;exitDy=0;exitPerimeter=0;" edge="1" parent="1">
                    <mxGeometry width="160" relative="1" as="geometry">
                        <mxPoint x="367" y="266.15999999999997" as="sourcePoint"/>
                        <mxPoint x="547" y="266" as="targetPoint"/>
                    </mxGeometry>
                </mxCell>
                <mxCell id="15" value="Existe pas" style="text;html=1;align=center;verticalAlign=middle;resizable=0;points=[];autosize=1;" vertex="1" parent="1">
                    <mxGeometry x="422" y="246" width="70" height="20" as="geometry"/>
                </mxCell>
                <mxCell id="16" value="" style="endArrow=none;startArrow=classic;endFill=0;startFill=1;html=1;dashed=1;exitX=0.9;exitY=0.289;exitDx=0;exitDy=0;exitPerimeter=0;" edge="1" parent="1">
                    <mxGeometry width="160" relative="1" as="geometry">
                        <mxPoint x="182.99999999999977" y="286.2900000000001" as="sourcePoint"/>
                        <mxPoint x="357" y="286" as="targetPoint"/>
                    </mxGeometry>
                </mxCell>
                <mxCell id="17" value="Msg Erreur" style="text;html=1;align=center;verticalAlign=middle;resizable=0;points=[];autosize=1;" vertex="1" parent="1">
                    <mxGeometry x="234" y="266" width="70" height="20" as="geometry"/>
                </mxCell>
                <mxCell id="18" value="Login et MP sont Corrects" style="text;html=1;strokeColor=none;fillColor=none;align=center;verticalAlign=middle;whiteSpace=wrap;rounded=0;" vertex="1" parent="1">
                    <mxGeometry x="50" y="221" width="130" height="24" as="geometry"/>
                </mxCell>
                <mxCell id="19" value="Login et MP sont Incorrects" style="text;html=1;strokeColor=none;fillColor=none;align=center;verticalAlign=middle;whiteSpace=wrap;rounded=0;" vertex="1" parent="1">
                    <mxGeometry x="56" y="260" width="110" height="30" as="geometry"/>
                </mxCell>
            </root>
        </mxGraphModel>
    </diagram>
</mxfile>